<?xml version="1.0" encoding="UTF-8" standalone="no"?><!DOCTYPE svg PUBLIC "-//W3C//DTD SVG 1.1//EN" "http://www.w3.org/Graphics/SVG/1.1/DTD/svg11.dtd"><svg width="100%" height="100%" viewBox="0 0 46 35" version="1.1" xmlns="http://www.w3.org/2000/svg" xmlns:xlink="http://www.w3.org/1999/xlink" xml:space="preserve" xmlns:serif="http://www.serif.com/" style="fill-rule:evenodd;clip-rule:evenodd;stroke-linejoin:round;stroke-miterlimit:2;"><g><path d="M33.553,2.378l-4.491,0c-1.968,0 -6.372,6.054 -6.372,6.054l-7.996,10.852l-9.455,12.629l3.87,2.8l10.333,-13.953l9.227,-12.452c-0,0 4.478,-5.948 6.876,-5.939l-1.992,0.009Z" style="fill:#b7b8bc;fill-rule:nonzero;"/><path d="M32.06,27.88c-2.092,-1.399 -10.82,-7.596 -10.82,-7.596l-1.563,2.071c-0,0 16.347,12.398 17.824,12.398c1.354,0 6.408,0 7.242,-0.009c-3.327,-0.009 -10.59,-5.466 -12.683,-6.864Z" style="fill:#b7b8bc;fill-rule:nonzero;"/><path d="M39.253,32.033c0.228,-2.894 -2.188,-11.082 -3.177,-14.964c-0.987,-3.882 -3.913,-11.694 -3.913,-11.694c-0,0 2.135,-2.298 3.561,-2.298c2.282,-0 4.635,5.733 6.847,13.357c2.211,7.623 5.082,17.585 1.905,17.585c0,0 -1.726,0.034 -5.223,-1.986Z" style="fill:#d34e27;fill-rule:nonzero;"/><path d="M21.696,0l-21.098,28.524l3.886,2.877l21.097,-28.525l-3.885,-2.876Z" style="fill:#b7b8bc;fill-rule:nonzero;"/><path d="M0,21.168l3.216,2.381l14.238,-19.251l-3.216,-2.382l-14.238,19.252Z" style="fill:#b7b8bc;fill-rule:nonzero;"/><path d="M7.08,10.059l-3.277,-2.375l-1.411,1.941l3.277,2.375l1.411,-1.941Z" style="fill:#b7b8bc;fill-rule:nonzero;"/></g></svg>